<svg id="Layer_1" data-name="Layer 1" xmlns="http://www.w3.org/2000/svg" viewBox="0 0 190.4 158.16"><path d="M345.2,325.58c0,2-.43,2.93-1.56,3.3l-69.72.08-34,0h-2.32V311.72l13.94-18.51,22.42-29.76v19.19c-.07,2.75-1,6,0,8.15a3.42,3.42,0,0,0,.63,1c2.07,2.19,6.34.65,9.64.71,6.95.12,13.91-.06,20.86.09,2.6.06,3.58-.58,3.58-3.38q-.13-35.9,0-71.77h0c0-2.21,0-4.43,0-6.64,0-2.46-.63-3.32-3.24-3.28-9.66.16-19.32.1-29,0a4.66,4.66,0,0,0-2.47.56,5.11,5.11,0,0,0-1.59,1.54c-11.56,16-23.2,31.94-34.77,47.93q-7,9.6-13.89,19.23c-2.28,3.17-3,2-4.55-.41-8.36-13.43-16.81-26.81-25.23-40.2-.54-.85-1.15-1.66-1.73-2.51-1.35.81-.71,2-.71,2.85q0,28.38,0,56.76h-.26V328a1.89,1.89,0,0,1-1.56,1.07h-8.53c-6.61-.06-13.22,0-19.84,0h-3.74c-1.89-.1-2.69-.79-2.69-3.28v0q0-16.22,0-32.45.06-59.49,0-119c0-2.82.94-3.43,3.54-3.4,10.94.12,21.88.16,32.82,0l2,0c2.6,0,3.91,1,5.19,3,7.22,11.41,14.62,22.7,21.81,34.13,1.57,2.49,2.3,3.07,4.37.32q6.48-8.58,13.08-17,6.9-8.9,13.75-17.83a5.76,5.76,0,0,1,5.14-2.57l17.47,0q33.76,0,67.54-.05c2.82,0,3.74.65,3.73,3.61q-.1,59.29,0,118.58Q345.17,309.34,345.2,325.58Z" transform="translate(-154.8 -170.92)"/></svg>