<svg xmlns="http://www.w3.org/2000/svg" viewBox="0 0 149.4 149.79"><defs><style>.cls-1{fill:#c6a15b;}</style></defs><g id="Layer_2" data-name="Layer 2"><g id="Layer_1-2" data-name="Layer 1"><path class="cls-1" d="M29.29,37.77a29.09,29.09,0,0,1-15.73,4.56,28.82,28.82,0,0,1-3.22-.18,13.25,13.25,0,0,0-1.54-.09H8.64a5.83,5.83,0,0,1,1-5.74l4.14-5a5.88,5.88,0,0,1,8.27-.75A56.45,56.45,0,0,1,29.29,37.77Z"/><path class="cls-1" d="M29.1,111.59a57.16,57.16,0,0,1-7.33,7.18,5.78,5.78,0,0,1-3.66,1.3,5.86,5.86,0,0,1-5-2.83L9.7,111.67A5.75,5.75,0,0,1,9,107.61a30.13,30.13,0,0,1,4.75-.38A29.18,29.18,0,0,1,29.1,111.59Z"/><path class="cls-1" d="M42.76,74.56a55.57,55.57,0,0,1-.34,6.22,64.62,64.62,0,0,0-16.34-6,63.9,63.9,0,0,0,16.38-6.06A56.19,56.19,0,0,1,42.76,74.56Z"/><path class="cls-1" d="M68.68,16.51A29.26,29.26,0,0,1,50.88,6l-.34-.41A5.82,5.82,0,0,1,55.72.7L62.16,0c.2,0,.41,0,.61,0A5.89,5.89,0,0,1,68.6,5.28,57.73,57.73,0,0,1,68.68,16.51Z"/><path class="cls-1" d="M55.77,47.72q-1.49,1.78-3.13,3.47a59.75,59.75,0,0,1-4.72,4.32c-1.11.91-2.25,1.77-3.41,2.57S42.18,59.66,41,60.36a56.71,56.71,0,0,1-16.31,6.53c-1.3.3-2.6.55-3.92.76s-2.65.37-4,.48c-1.63.14-3.26.21-4.9.21s-3.43-.08-5.14-.23a5.86,5.86,0,0,1-5.15-7.17l1.48-6.35A5.82,5.82,0,0,1,5.62,51a5.93,5.93,0,0,1,3.18-.92c.22,0,.44,0,.66,0,.49,0,1,.1,1.48.13.87.07,1.75.1,2.62.1s1.92,0,2.88-.11a37.18,37.18,0,0,0,17.59-6,37,37,0,0,0,3.24-2.39c.61-.5,1.21-1,1.8-1.58,1,.62,2,1.21,3,1.77A64.38,64.38,0,0,0,55.77,47.72Z"/><path class="cls-1" d="M140.92,41l-.4.06a29.82,29.82,0,0,1-4.81.39,29.31,29.31,0,0,1-14.56-3.85A57,57,0,0,1,128,31a5.81,5.81,0,0,1,3.67-1.31,5.89,5.89,0,0,1,5,2.83l3.38,5.58A5.84,5.84,0,0,1,140.92,41Z"/><path class="cls-1" d="M124.33,74.12c0,.25,0,.49,0,.74a65.07,65.07,0,0,0-11.65,3.64q-2.73,1.16-5.36,2.56a56,56,0,0,1-.3-5.83,57,57,0,0,1,.44-7.07A63.79,63.79,0,0,0,124.33,74.12Z"/><path class="cls-1" d="M140.13,113.47l-4.15,5a5.86,5.86,0,0,1-8.26.75,56.53,56.53,0,0,1-7.25-7.18,29.36,29.36,0,0,1,19-4.38c.51,0,1,.08,1.54.08h.16A5.88,5.88,0,0,1,140.13,113.47Z"/><path class="cls-1" d="M99.29,143.55a5.84,5.84,0,0,1-5.24,5.54l-6.44.66c-.21,0-.41,0-.61,0a5.89,5.89,0,0,1-5.83-5.28,57.38,57.38,0,0,1,0-12.22,29.21,29.21,0,0,1,17.34,10.4C98.77,143,99,143.28,99.29,143.55Z"/><path class="cls-1" d="M148.19,88.85l-1.48,6.35a5.75,5.75,0,0,1-2.57,3.6,5.88,5.88,0,0,1-3.17.92l-.67,0c-.49,0-1-.1-1.47-.13-.87-.07-1.75-.1-2.62-.1s-1.92,0-2.88.11a37.18,37.18,0,0,0-17.59,6,34.82,34.82,0,0,0-3.23,2.38c-.43.34-.85.71-1.27,1.08q-2.07-1.35-4.23-2.53a64,64,0,0,0-12.34-5.2c.78-.92,1.6-1.81,2.46-2.69a58,58,0,0,1,4.72-4.32c1.11-.91,2.25-1.77,3.41-2.58s2.34-1.57,3.54-2.28a56.62,56.62,0,0,1,16.3-6.52c1.3-.3,2.6-.55,3.92-.76s2.65-.37,4-.48c1.63-.14,3.26-.21,4.9-.21s3.43.08,5.14.23A5.85,5.85,0,0,1,148.19,88.85Z"/><path class="cls-1" d="M118.21,20.86a57,57,0,0,1-7.06,7.35,29.16,29.16,0,0,1-4.68-18.89,13.47,13.47,0,0,0,0-1.68,5.6,5.6,0,0,1,2.1-.4,5.8,5.8,0,0,1,3.67,1.3l5,4.06A5.88,5.88,0,0,1,118.21,20.86Z"/><path class="cls-1" d="M80.39,41.84a56.32,56.32,0,0,1-5.84.39h-.88c-1.51,0-3-.06-4.48-.18s-2.88-.27-4.3-.5-2.79-.48-4.16-.8a56.76,56.76,0,0,1-16.36-6.63c-1.15-.68-2.27-1.41-3.37-2.18s-2.15-1.57-3.18-2.41A56.6,56.6,0,0,1,30,21.91a5.84,5.84,0,0,1,1.39-8.71L37,9.73A5.82,5.82,0,0,1,40,8.84a5.71,5.71,0,0,1,2.68.66,5.65,5.65,0,0,1,1.94,1.56c.72.89,1.48,1.74,2.28,2.56A35.73,35.73,0,0,0,50.72,17a37.18,37.18,0,0,0,16.67,7.4c1.31.22,2.65.37,4,.46.77.05,1.55.07,2.33.07h.21c.25,1,.51,2.09.8,3.12A64.67,64.67,0,0,0,80.39,41.84Z"/><path class="cls-1" d="M144.21,67a58.54,58.54,0,0,1-6.88.41c-1.32,0-2.63-.05-3.94-.14s-2.69-.23-4-.42-2.63-.41-3.94-.7A56.47,56.47,0,0,1,109.09,60c-1.2-.68-2.38-1.42-3.54-2.2s-2.3-1.61-3.41-2.49a53.54,53.54,0,0,1-4.07-3.51,58.13,58.13,0,0,1-4.39-4.65c-.92-1.09-1.8-2.22-2.63-3.37s-1.6-2.31-2.33-3.49h0A56.79,56.79,0,0,1,82,24c-.32-1.29-.59-2.6-.82-3.91s-.41-2.65-.54-4a57,57,0,0,1-.13-10A5.84,5.84,0,0,1,86.3.71a6,6,0,0,1,1.25.13l6.37,1.39a5.83,5.83,0,0,1,3.65,2.5,6,6,0,0,1,.94,3.84c-.05.49-.08,1-.11,1.47a37.42,37.42,0,0,0,6.35,23,38.39,38.39,0,0,0,5.17,6.1l-.1.15.15-.1h0a37.81,37.81,0,0,0,3,2.56A36.75,36.75,0,0,0,116.29,44a37.23,37.23,0,0,0,18.32,5.42l1.1,0a36.27,36.27,0,0,0,5.2-.37h0c.3,0,.6-.08.9-.13a6.45,6.45,0,0,1,1-.08,5.79,5.79,0,0,1,3.1.89,5.86,5.86,0,0,1,2.71,4.28l.76,6.43A5.88,5.88,0,0,1,144.21,67Z"/><path class="cls-1" d="M42.94,139.39a13.53,13.53,0,0,0,0,1.68,5.6,5.6,0,0,1-2.1.4,5.78,5.78,0,0,1-3.67-1.3l-5-4.06a5.88,5.88,0,0,1-.88-8.26,56.39,56.39,0,0,1,7.06-7.35A29.19,29.19,0,0,1,42.94,139.39Z"/><path class="cls-1" d="M118,135.51,112.46,139a5.82,5.82,0,0,1-5.52.36,5.94,5.94,0,0,1-2.19-1.69c-.61-.75-1.24-1.47-1.9-2.17a37.28,37.28,0,0,0-24.24-11.6c-1-.07-1.94-.11-2.92-.11h-.22c-.14-.65-.3-1.29-.47-1.92a64.67,64.67,0,0,0-6-15,56.32,56.32,0,0,1,5.84-.39h.88c1.81,0,3.61.09,5.38.26,1.45.13,2.88.32,4.29.56s2.79.53,4.16.88a56.33,56.33,0,0,1,16.25,6.89c1.13.7,2.24,1.44,3.31,2.22s2.14,1.6,3.16,2.47a56.73,56.73,0,0,1,7.08,7A5.84,5.84,0,0,1,118,135.51Z"/><path class="cls-1" d="M69,142.61A5.86,5.86,0,0,1,63.11,148a6,6,0,0,1-1.25-.13l-6.38-1.39a5.8,5.8,0,0,1-3.64-2.5,6,6,0,0,1-.94-3.84c.05-.49.08-1,.11-1.48a37.4,37.4,0,0,0-6.35-23,34.88,34.88,0,0,0-2.43-3.19c-.65-.78-1.35-1.54-2.09-2.27.42-.63.83-1.27,1.21-1.92-.64.4-1.27.81-1.9,1.24l0,0c-.75-.71-1.51-1.38-2.3-2a34.87,34.87,0,0,0-3.26-2.35,37.12,37.12,0,0,0-17.78-5.83c-.8,0-1.59-.08-2.39-.08-1.1,0-2.2,0-3.3.14h0c-.94.09-1.87.2-2.8.36a6.45,6.45,0,0,1-1,.08,5.71,5.71,0,0,1-2.22-.44A5.83,5.83,0,0,1,.81,94.64L0,88.21a5.88,5.88,0,0,1,5.15-6.52,58.84,58.84,0,0,1,6.89-.41c1.53,0,3.05.06,4.57.19,1.34.1,2.67.25,4,.46s2.63.44,3.93.74A56.27,56.27,0,0,1,40.89,89.1c1.2.69,2.37,1.44,3.53,2.24s2.3,1.65,3.42,2.55h0c1.2,1,2.36,2,3.5,3.06a58.13,58.13,0,0,1,4.39,4.65c.92,1.09,1.8,2.22,2.63,3.37s1.61,2.31,2.34,3.5a56.61,56.61,0,0,1,6.76,16.2c.32,1.29.59,2.6.82,3.91s.41,2.65.54,4A57,57,0,0,1,69,142.61Z"/></g></g></svg>